<svg width="30" height="30" viewBox="0 0 30 30" fill="none" xmlns="http://www.w3.org/2000/svg">
<g clip-path="url(#clip0)">
<path d="M22.8077 19.8456C21.8276 18.878 20.604 18.878 19.6301 19.8456C18.8872 20.5822 18.1444 21.3189 17.414 22.068C17.2142 22.274 17.0456 22.3177 16.8022 22.1804C16.3215 21.9182 15.8096 21.7059 15.3476 21.4187C13.1939 20.0641 11.3897 18.3224 9.79159 16.3621C8.99877 15.3883 8.29334 14.3457 7.80017 13.1721C7.70028 12.9349 7.71901 12.7788 7.91254 12.5853C8.65542 11.8674 9.37957 11.1307 10.11 10.3941C11.1275 9.3703 11.1275 8.1717 10.1037 7.14165C9.52316 6.55484 8.94258 5.98051 8.36201 5.39369C7.76271 4.79439 7.16965 4.18885 6.56411 3.59579C5.584 2.64066 4.36043 2.64066 3.38657 3.60203C2.63744 4.33868 1.91953 5.09404 1.15792 5.8182C0.452489 6.48617 0.0966536 7.30397 0.021741 8.2591C-0.0968706 9.81354 0.283935 11.2806 0.820809 12.7102C1.91953 15.6692 3.59258 18.2974 5.62146 20.7071C8.36201 23.9658 11.6332 26.544 15.46 28.4043C17.183 29.2409 18.9684 29.8839 20.9099 29.99C22.2458 30.0649 23.407 29.7278 24.3371 28.6853C24.9739 27.9736 25.6918 27.3244 26.366 26.6439C27.3648 25.6326 27.3711 24.409 26.3785 23.4102C25.1924 22.2178 24 21.0317 22.8077 19.8456Z" fill="#38bfed"/>
<path d="M21.6148 14.8702L23.9183 14.4769C23.5562 12.3606 22.5574 10.4441 21.0404 8.92084C19.4361 7.31647 17.4072 6.30515 15.1723 5.99301L14.8477 8.30906C16.5769 8.55253 18.1501 9.33286 19.3924 10.5752C20.566 11.7488 21.3338 13.2346 21.6148 14.8702Z" fill="#38bfed"/>
<path d="M25.2176 4.85683C22.5582 2.19744 19.1933 0.518146 15.4789 0L15.1543 2.31605C18.3631 2.76552 21.2722 4.22008 23.5695 6.51115C25.7482 8.68986 27.1778 11.4429 27.6959 14.4706L29.9995 14.0773C29.3939 10.5689 27.7396 7.38513 25.2176 4.85683Z" fill="#38bfed"/>
</g>
<defs>
<clipPath id="clip0">
<rect width="30" height="30" fill="#38bfed"/>
</clipPath>
</defs>
</svg>
